<svg width="32" height="32" viewBox="0 0 32 32" fill="none" xmlns="http://www.w3.org/2000/svg">
<rect x="0.54541" y="0.54541" width="30" height="30" rx="15" fill="#121416"/>
<rect x="0.54541" y="0.54541" width="30" height="30" rx="15" stroke="white" stroke-opacity="0.05" stroke-width="1.09091"/>
<path d="M25.231 18.0454C24.1209 22.3585 20.205 25.5454 15.5454 25.5454C13.1339 25.5454 10.9219 24.6916 9.19482 23.27L13.3345 19.771C14.6521 18.6571 16.3219 18.0454 18.0474 18.0454H25.231ZM12.1724 12.6948C13.815 14.0835 15.8964 14.8462 18.0474 14.8462H25.5181C25.534 15.0773 25.5454 15.3103 25.5454 15.5454C25.5454 15.7809 25.5341 16.0142 25.5181 16.2456H18.0474C15.8964 16.2456 13.815 17.0082 12.1724 18.397L7.90967 21.9995C6.43578 20.2575 5.54542 18.006 5.54541 15.5454C5.54541 13.0848 6.43477 10.8323 7.90869 9.09033L12.1724 12.6948ZM15.5454 5.54541C20.2054 5.54541 24.1212 8.73277 25.231 13.0464H18.0474C16.322 13.0464 14.6521 12.4346 13.3345 11.3208L9.19385 7.81982C10.921 6.39822 13.1338 5.54542 15.5454 5.54541Z" fill="white"/>
</svg>
