<svg width="173" height="20" viewBox="0 0 173 20" fill="none" xmlns="http://www.w3.org/2000/svg">
<path d="M19.6855 12.5C18.5755 16.8131 14.6596 20 10 20C7.58849 20 5.37652 19.1462 3.64941 17.7246L7.78906 14.2256C9.10673 13.1117 10.7765 12.5 12.502 12.5H19.6855ZM6.62695 7.14941C8.26955 8.53808 10.351 9.30075 12.502 9.30078H19.9727C19.9886 9.53185 20 9.76488 20 10C20 10.2355 19.9887 10.4688 19.9727 10.7002H12.502C10.3509 10.7002 8.26958 11.4628 6.62695 12.8516L2.36426 16.4541C0.890366 14.7121 6.42276e-06 12.4605 0 10C0 7.53942 0.889356 5.28691 2.36328 3.54492L6.62695 7.14941ZM10 0C14.66 0 18.5758 3.18736 19.6855 7.50098H12.502C10.7766 7.50095 9.1067 6.88921 7.78906 5.77539L3.64844 2.27441C5.37556 0.85281 7.58843 5.23847e-06 10 0Z" fill="black"/>
<path d="M30.8063 16L27.1103 5.57H28.8883L31.9123 14.474H31.5623L34.5723 5.57H36.3503L32.6543 16H30.8063ZM40.282 16.168C39.526 16.168 38.854 15.9953 38.266 15.65C37.6873 15.2953 37.2347 14.8193 36.908 14.222C36.5813 13.6153 36.418 12.9387 36.418 12.192C36.418 11.4267 36.5813 10.75 36.908 10.162C37.244 9.574 37.692 9.112 38.252 8.776C38.812 8.43067 39.4467 8.258 40.156 8.258C40.7253 8.258 41.234 8.356 41.682 8.552C42.13 8.748 42.508 9.01867 42.816 9.364C43.124 9.7 43.3573 10.0873 43.516 10.526C43.684 10.9647 43.768 11.4313 43.768 11.926C43.768 12.0473 43.7633 12.1733 43.754 12.304C43.7447 12.4347 43.726 12.556 43.698 12.668H37.664V11.408H42.802L42.046 11.982C42.1393 11.5247 42.1067 11.1187 41.948 10.764C41.7987 10.4 41.5653 10.1153 41.248 9.91C40.94 9.69533 40.576 9.588 40.156 9.588C39.736 9.588 39.3627 9.69533 39.036 9.91C38.7093 10.1153 38.4573 10.414 38.28 10.806C38.1027 11.1887 38.0327 11.6553 38.07 12.206C38.0233 12.7193 38.0933 13.1673 38.28 13.55C38.476 13.9327 38.7467 14.2313 39.092 14.446C39.4467 14.6607 39.848 14.768 40.296 14.768C40.7533 14.768 41.1407 14.6653 41.458 14.46C41.7847 14.2547 42.0413 13.9887 42.228 13.662L43.516 14.292C43.3667 14.6467 43.1333 14.9687 42.816 15.258C42.508 15.538 42.1347 15.762 41.696 15.93C41.2667 16.0887 40.7953 16.168 40.282 16.168ZM45.3119 16V8.426H46.8239V9.952L46.6839 9.728C46.8519 9.23333 47.1226 8.87867 47.4959 8.664C47.8693 8.44 48.3173 8.328 48.8399 8.328H49.3019V9.77H48.6439C48.1213 9.77 47.6966 9.93333 47.3699 10.26C47.0526 10.5773 46.8939 11.0347 46.8939 11.632V16H45.3119ZM52.2182 16L49.6142 8.426H51.2942L53.2822 14.46H52.6942L54.7242 8.426H56.1662L58.1822 14.46H57.5942L59.5962 8.426H61.2762L58.6582 16H57.2302L55.1862 9.826H55.7042L53.6602 16H52.2182ZM64.3553 16.168C63.842 16.168 63.3893 16.0793 62.9973 15.902C62.6147 15.7153 62.316 15.4633 62.1013 15.146C61.8867 14.8193 61.7793 14.4367 61.7793 13.998C61.7793 13.5873 61.868 13.2187 62.0453 12.892C62.232 12.5653 62.5167 12.29 62.8993 12.066C63.282 11.842 63.7627 11.6833 64.3413 11.59L66.9733 11.156V12.402L64.6493 12.808C64.2293 12.8827 63.9213 13.018 63.7253 13.214C63.5293 13.4007 63.4313 13.6433 63.4313 13.942C63.4313 14.2313 63.5387 14.4693 63.7533 14.656C63.9773 14.8333 64.262 14.922 64.6073 14.922C65.0367 14.922 65.41 14.8287 65.7273 14.642C66.054 14.4553 66.306 14.208 66.4833 13.9C66.6607 13.5827 66.7493 13.2327 66.7493 12.85V10.904C66.7493 10.5307 66.6093 10.2273 66.3293 9.994C66.0587 9.75133 65.6947 9.63 65.2373 9.63C64.8173 9.63 64.4487 9.742 64.1313 9.966C63.8233 10.1807 63.5947 10.4607 63.4453 10.806L62.1293 10.148C62.2693 9.77467 62.498 9.448 62.8153 9.168C63.1327 8.87867 63.5013 8.65467 63.9213 8.496C64.3507 8.33733 64.8033 8.258 65.2793 8.258C65.8767 8.258 66.404 8.37 66.8613 8.594C67.328 8.818 67.6873 9.13067 67.9393 9.532C68.2007 9.924 68.3313 10.3813 68.3313 10.904V16H66.8193V14.628L67.1413 14.67C66.964 14.978 66.7353 15.244 66.4553 15.468C66.1847 15.692 65.872 15.8647 65.5173 15.986C65.172 16.1073 64.7847 16.168 64.3553 16.168ZM70.1811 16V5.402H71.7631V16H70.1811ZM76.8887 16.084C76.0954 16.084 75.4794 15.86 75.0407 15.412C74.6021 14.964 74.3827 14.334 74.3827 13.522V9.854H73.0527V8.426H73.2627C73.6174 8.426 73.8927 8.32333 74.0887 8.118C74.2847 7.91267 74.3827 7.63267 74.3827 7.278V6.69H75.9647V8.426H77.6867V9.854H75.9647V13.452C75.9647 13.7133 76.0067 13.9373 76.0907 14.124C76.1747 14.3013 76.3101 14.4413 76.4967 14.544C76.6834 14.6373 76.9261 14.684 77.2247 14.684C77.2994 14.684 77.3834 14.6793 77.4767 14.67C77.5701 14.6607 77.6587 14.6513 77.7427 14.642V16C77.6121 16.0187 77.4674 16.0373 77.3087 16.056C77.1501 16.0747 77.0101 16.084 76.8887 16.084ZM81.9885 16.168C81.4192 16.168 80.9199 16.042 80.4905 15.79C80.0612 15.5287 79.7252 15.1693 79.4825 14.712C79.2492 14.2453 79.1325 13.7087 79.1325 13.102V8.426H80.7145V12.962C80.7145 13.3073 80.7845 13.6107 80.9245 13.872C81.0645 14.1333 81.2605 14.3387 81.5125 14.488C81.7645 14.628 82.0539 14.698 82.3805 14.698C82.7165 14.698 83.0105 14.6233 83.2625 14.474C83.5145 14.3247 83.7105 14.1147 83.8505 13.844C83.9999 13.5733 84.0745 13.256 84.0745 12.892V8.426H85.6425V16H84.1445V14.516L84.3125 14.712C84.1352 15.1787 83.8412 15.538 83.4305 15.79C83.0199 16.042 82.5392 16.168 81.9885 16.168ZM87.4897 16V8.426H89.0017V9.91L88.8197 9.714C89.0063 9.238 89.305 8.87867 89.7157 8.636C90.1263 8.384 90.6023 8.258 91.1437 8.258C91.7037 8.258 92.1983 8.37933 92.6277 8.622C93.057 8.86467 93.393 9.20067 93.6357 9.63C93.8783 10.0593 93.9997 10.554 93.9997 11.114V16H92.4317V11.534C92.4317 11.1513 92.3617 10.8293 92.2217 10.568C92.0817 10.2973 91.881 10.092 91.6197 9.952C91.3677 9.80267 91.0783 9.728 90.7517 9.728C90.425 9.728 90.131 9.80267 89.8697 9.952C89.6177 10.092 89.4217 10.2973 89.2817 10.568C89.1417 10.8387 89.0717 11.1607 89.0717 11.534V16H87.4897ZM99.3468 19.08C98.7961 19.08 98.2875 18.9913 97.8208 18.814C97.3541 18.6367 96.9528 18.3893 96.6168 18.072C96.2808 17.764 96.0288 17.4 95.8608 16.98L97.3168 16.378C97.4475 16.7327 97.6855 17.0267 98.0308 17.26C98.3855 17.4933 98.8195 17.61 99.3328 17.61C99.7341 17.61 100.093 17.5307 100.411 17.372C100.728 17.2227 100.98 16.9987 101.167 16.7C101.353 16.4107 101.447 16.0607 101.447 15.65V13.942L101.727 14.264C101.465 14.7493 101.101 15.118 100.635 15.37C100.177 15.622 99.6595 15.748 99.0808 15.748C98.3808 15.748 97.7508 15.5847 97.1908 15.258C96.6308 14.9313 96.1875 14.4833 95.8608 13.914C95.5435 13.3447 95.3848 12.7053 95.3848 11.996C95.3848 11.2773 95.5435 10.638 95.8608 10.078C96.1875 9.518 96.6261 9.07467 97.1768 8.748C97.7275 8.42133 98.3575 8.258 99.0668 8.258C99.6455 8.258 100.159 8.384 100.607 8.636C101.064 8.87867 101.437 9.23333 101.727 9.7L101.517 10.092V8.426H103.015V15.65C103.015 16.3033 102.856 16.8867 102.539 17.4C102.231 17.9227 101.801 18.3333 101.251 18.632C100.7 18.9307 100.065 19.08 99.3468 19.08ZM99.2628 14.278C99.6828 14.278 100.056 14.18 100.383 13.984C100.709 13.7787 100.966 13.508 101.153 13.172C101.349 12.8267 101.447 12.4393 101.447 12.01C101.447 11.5807 101.349 11.1933 101.153 10.848C100.957 10.5027 100.695 10.232 100.369 10.036C100.042 9.83067 99.6735 9.728 99.2628 9.728C98.8335 9.728 98.4508 9.83067 98.1148 10.036C97.7788 10.232 97.5128 10.5027 97.3168 10.848C97.1301 11.184 97.0368 11.5713 97.0368 12.01C97.0368 12.43 97.1301 12.8127 97.3168 13.158C97.5128 13.5033 97.7788 13.7787 98.1148 13.984C98.4508 14.18 98.8335 14.278 99.2628 14.278ZM107.667 16.168C106.892 16.168 106.211 15.9767 105.623 15.594C105.044 15.2113 104.638 14.698 104.405 14.054L105.623 13.48C105.828 13.9093 106.108 14.25 106.463 14.502C106.827 14.754 107.228 14.88 107.667 14.88C108.04 14.88 108.343 14.796 108.577 14.628C108.81 14.46 108.927 14.2313 108.927 13.942C108.927 13.7553 108.875 13.606 108.773 13.494C108.67 13.3727 108.539 13.2747 108.381 13.2C108.231 13.1253 108.077 13.0693 107.919 13.032L106.729 12.696C106.075 12.5093 105.585 12.2293 105.259 11.856C104.941 11.4733 104.783 11.03 104.783 10.526C104.783 10.0687 104.899 9.672 105.133 9.336C105.366 8.99067 105.688 8.72467 106.099 8.538C106.509 8.35133 106.971 8.258 107.485 8.258C108.175 8.258 108.791 8.43067 109.333 8.776C109.874 9.112 110.257 9.58333 110.481 10.19L109.263 10.764C109.113 10.4 108.875 10.1107 108.549 9.896C108.231 9.68133 107.872 9.574 107.471 9.574C107.125 9.574 106.85 9.658 106.645 9.826C106.439 9.98467 106.337 10.1947 106.337 10.456C106.337 10.6333 106.383 10.7827 106.477 10.904C106.57 11.016 106.691 11.1093 106.841 11.184C106.99 11.2493 107.144 11.3053 107.303 11.352L108.535 11.716C109.16 11.8933 109.641 12.1733 109.977 12.556C110.313 12.9293 110.481 13.3773 110.481 13.9C110.481 14.348 110.359 14.7447 110.117 15.09C109.883 15.426 109.557 15.692 109.137 15.888C108.717 16.0747 108.227 16.168 107.667 16.168ZM114.831 16.168C114.056 16.168 113.375 15.9767 112.787 15.594C112.208 15.2113 111.802 14.698 111.569 14.054L112.787 13.48C112.992 13.9093 113.272 14.25 113.627 14.502C113.991 14.754 114.392 14.88 114.831 14.88C115.204 14.88 115.507 14.796 115.741 14.628C115.974 14.46 116.091 14.2313 116.091 13.942C116.091 13.7553 116.039 13.606 115.937 13.494C115.834 13.3727 115.703 13.2747 115.545 13.2C115.395 13.1253 115.241 13.0693 115.083 13.032L113.893 12.696C113.239 12.5093 112.749 12.2293 112.423 11.856C112.105 11.4733 111.947 11.03 111.947 10.526C111.947 10.0687 112.063 9.672 112.297 9.336C112.53 8.99067 112.852 8.72467 113.263 8.538C113.673 8.35133 114.135 8.258 114.649 8.258C115.339 8.258 115.955 8.43067 116.497 8.776C117.038 9.112 117.421 9.58333 117.645 10.19L116.427 10.764C116.277 10.4 116.039 10.1107 115.713 9.896C115.395 9.68133 115.036 9.574 114.635 9.574C114.289 9.574 114.014 9.658 113.809 9.826C113.603 9.98467 113.501 10.1947 113.501 10.456C113.501 10.6333 113.547 10.7827 113.641 10.904C113.734 11.016 113.855 11.1093 114.005 11.184C114.154 11.2493 114.308 11.3053 114.467 11.352L115.699 11.716C116.324 11.8933 116.805 12.1733 117.141 12.556C117.477 12.9293 117.645 13.3773 117.645 13.9C117.645 14.348 117.523 14.7447 117.281 15.09C117.047 15.426 116.721 15.692 116.301 15.888C115.881 16.0747 115.391 16.168 114.831 16.168ZM119.195 18.8V8.426H120.707V9.994L120.525 9.63C120.805 9.20067 121.178 8.86467 121.645 8.622C122.111 8.37933 122.643 8.258 123.241 8.258C123.959 8.258 124.603 8.43067 125.173 8.776C125.751 9.12133 126.204 9.59267 126.531 10.19C126.867 10.7873 127.035 11.4593 127.035 12.206C127.035 12.9527 126.867 13.6247 126.531 14.222C126.204 14.8193 125.756 15.2953 125.187 15.65C124.617 15.9953 123.969 16.168 123.241 16.168C122.653 16.168 122.116 16.0467 121.631 15.804C121.155 15.5613 120.786 15.2113 120.525 14.754L120.777 14.46V18.8H119.195ZM123.087 14.698C123.535 14.698 123.931 14.5907 124.277 14.376C124.622 14.1613 124.893 13.8673 125.089 13.494C125.294 13.1113 125.397 12.682 125.397 12.206C125.397 11.73 125.294 11.3053 125.089 10.932C124.893 10.5587 124.622 10.2647 124.277 10.05C123.931 9.83533 123.535 9.728 123.087 9.728C122.648 9.728 122.251 9.83533 121.897 10.05C121.551 10.2647 121.276 10.5587 121.071 10.932C120.875 11.3053 120.777 11.73 120.777 12.206C120.777 12.682 120.875 13.1113 121.071 13.494C121.276 13.8673 121.551 14.1613 121.897 14.376C122.251 14.5907 122.648 14.698 123.087 14.698ZM128.574 16V8.426H130.086V9.952L129.946 9.728C130.114 9.23333 130.384 8.87867 130.758 8.664C131.131 8.44 131.579 8.328 132.102 8.328H132.564V9.77H131.906C131.383 9.77 130.958 9.93333 130.632 10.26C130.314 10.5773 130.156 11.0347 130.156 11.632V16H128.574ZM136.348 16.168C135.779 16.168 135.279 16.042 134.85 15.79C134.421 15.5287 134.085 15.1693 133.842 14.712C133.609 14.2453 133.492 13.7087 133.492 13.102V8.426H135.074V12.962C135.074 13.3073 135.144 13.6107 135.284 13.872C135.424 14.1333 135.62 14.3387 135.872 14.488C136.124 14.628 136.413 14.698 136.74 14.698C137.076 14.698 137.37 14.6233 137.622 14.474C137.874 14.3247 138.07 14.1147 138.21 13.844C138.359 13.5733 138.434 13.256 138.434 12.892V8.426H140.002V16H138.504V14.516L138.672 14.712C138.495 15.1787 138.201 15.538 137.79 15.79C137.379 16.042 136.899 16.168 136.348 16.168ZM141.849 16V8.426H143.361V9.91L143.179 9.714C143.366 9.238 143.664 8.87867 144.075 8.636C144.486 8.384 144.962 8.258 145.503 8.258C146.063 8.258 146.558 8.37933 146.987 8.622C147.416 8.86467 147.752 9.20067 147.995 9.63C148.238 10.0593 148.359 10.554 148.359 11.114V16H146.791V11.534C146.791 11.1513 146.721 10.8293 146.581 10.568C146.441 10.2973 146.24 10.092 145.979 9.952C145.727 9.80267 145.438 9.728 145.111 9.728C144.784 9.728 144.49 9.80267 144.229 9.952C143.977 10.092 143.781 10.2973 143.641 10.568C143.501 10.8387 143.431 11.1607 143.431 11.534V16H141.849ZM153.706 19.08C153.156 19.08 152.647 18.9913 152.18 18.814C151.714 18.6367 151.312 18.3893 150.976 18.072C150.64 17.764 150.388 17.4 150.22 16.98L151.676 16.378C151.807 16.7327 152.045 17.0267 152.39 17.26C152.745 17.4933 153.179 17.61 153.692 17.61C154.094 17.61 154.453 17.5307 154.77 17.372C155.088 17.2227 155.34 16.9987 155.526 16.7C155.713 16.4107 155.806 16.0607 155.806 15.65V13.942L156.086 14.264C155.825 14.7493 155.461 15.118 154.994 15.37C154.537 15.622 154.019 15.748 153.44 15.748C152.74 15.748 152.11 15.5847 151.55 15.258C150.99 14.9313 150.547 14.4833 150.22 13.914C149.903 13.3447 149.744 12.7053 149.744 11.996C149.744 11.2773 149.903 10.638 150.22 10.078C150.547 9.518 150.986 9.07467 151.536 8.748C152.087 8.42133 152.717 8.258 153.426 8.258C154.005 8.258 154.518 8.384 154.966 8.636C155.424 8.87867 155.797 9.23333 156.086 9.7L155.876 10.092V8.426H157.374V15.65C157.374 16.3033 157.216 16.8867 156.898 17.4C156.59 17.9227 156.161 18.3333 155.61 18.632C155.06 18.9307 154.425 19.08 153.706 19.08ZM153.622 14.278C154.042 14.278 154.416 14.18 154.742 13.984C155.069 13.7787 155.326 13.508 155.512 13.172C155.708 12.8267 155.806 12.4393 155.806 12.01C155.806 11.5807 155.708 11.1933 155.512 10.848C155.316 10.5027 155.055 10.232 154.728 10.036C154.402 9.83067 154.033 9.728 153.622 9.728C153.193 9.728 152.81 9.83067 152.474 10.036C152.138 10.232 151.872 10.5027 151.676 10.848C151.49 11.184 151.396 11.5713 151.396 12.01C151.396 12.43 151.49 12.8127 151.676 13.158C151.872 13.5033 152.138 13.7787 152.474 13.984C152.81 14.18 153.193 14.278 153.622 14.278Z" fill="black"/>
</svg>
